<?xml version="1.0" encoding="UTF-8" standalone="no"?>
<!-- Created with Inkscape (http://www.inkscape.org/) -->

<svg
   xmlns:dc="http://purl.org/dc/elements/1.1/"
   xmlns:cc="http://creativecommons.org/ns#"
   xmlns:rdf="http://www.w3.org/1999/02/22-rdf-syntax-ns#"
   xmlns:svg="http://www.w3.org/2000/svg"
   xmlns="http://www.w3.org/2000/svg"
   xmlns:sodipodi="http://sodipodi.sourceforge.net/DTD/sodipodi-0.dtd"
   xmlns:inkscape="http://www.inkscape.org/namespaces/inkscape"
   width="793.70081"
   height="1122.5197"
   viewBox="0 0 210 297"
   version="1.1"
   id="svg77361"
   inkscape:version="0.92.1 r15371"
   sodipodi:docname="alpaka.svg">
  <defs
     id="defs77355" />
  <sodipodi:namedview
     id="base"
     pagecolor="#ffffff"
     bordercolor="#666666"
     borderopacity="1.0"
     inkscape:pageopacity="0.0"
     inkscape:pageshadow="2"
     inkscape:zoom="0.35"
     inkscape:cx="-70"
     inkscape:cy="560"
     inkscape:document-units="mm"
     inkscape:current-layer="layer1"
     showgrid="false"
     units="px"
     inkscape:window-width="1920"
     inkscape:window-height="1001"
     inkscape:window-x="-9"
     inkscape:window-y="-9"
     inkscape:window-maximized="1" />
  <metadata
     id="metadata77358">
    <rdf:RDF>
      <cc:Work
         rdf:about="">
        <dc:format>image/svg+xml</dc:format>
        <dc:type
           rdf:resource="http://purl.org/dc/dcmitype/StillImage" />
        <dc:title></dc:title>
      </cc:Work>
    </rdf:RDF>
  </metadata>
  <g
     inkscape:label="Layer 1"
     inkscape:groupmode="layer"
     id="layer1">
    <path
       id="path164"
       style="fill:#fdf8e2;fill-opacity:1;fill-rule:nonzero;stroke:none;stroke-width:0.07306855"
       d="m 158.62331,129.97315 v -26.09644 c 5.4e-4,-0.10956 0.008,-0.21919 0.008,-0.32953 0,-16.026112 -5.92806,-30.576988 -15.57237,-41.360435 10.06883,-5.966791 16.54198,-17.837511 13.57831,-31.19515 L 151.20312,6.5004708 c -0.74822,-3.36773 -4.9197,-4.583592 -7.35945,-2.143831 -3.45907,14.4054552 -9.08315,28.1554892 -16.63042,40.8080392 -1.17932,1.977241 -3.61322,2.756895 -5.75778,1.918791 -6.12387,-2.395921 -12.74024,-3.71188 -19.65033,-3.71188 -6.910098,0 -13.525724,1.315959 -19.649597,3.71188 -2.144556,0.838104 -4.579209,0.05841 -5.758529,-1.918791 C 68.849768,32.512129 63.225683,18.762095 59.766618,4.3566398 57.32687,1.9168788 53.155383,3.1327408 52.408614,6.5004708 L 46.973045,30.991595 c -2.963661,13.357639 3.510216,25.228359 13.578322,31.19515 -9.644311,10.783447 -15.57163,25.334323 -15.57163,41.360435 v 26.42597 h 0.0116 c 0,0.1804 -0.0116,0.35731 -0.0116,0.53852 0,9.46237 2.067108,18.41108 5.742457,26.37555 V 258.1719 H 152.56541 V 157.55652 c 3.8719,-8.13398 6.06615,-17.31504 6.06615,-27.04485 0,-0.18123 -0.0104,-0.35803 -0.0124,-0.53852"
       inkscape:connector-curvature="0" />
    <path
       id="path166"
       style="fill:#ebd0b3;fill-opacity:1;fill-rule:nonzero;stroke:none;stroke-width:0.07306855"
       d="m 158.62331,103.87671 c 5.4e-4,-0.11039 0.008,-0.21919 0.008,-0.32953 0,-16.026112 -5.92806,-30.576988 -15.57237,-41.361181 10.06883,-5.966045 16.54198,-17.83749 13.57831,-31.194404 L 151.20312,6.5004708 c -0.74822,-3.368459 -4.9197,-4.582859 -7.35945,-2.143831 -3.45907,14.4047302 -9.08315,28.1554892 -16.63042,40.8073142 -1.17932,1.977966 -3.61322,2.75762 -5.75778,1.918791 -6.07391,-2.376203 -12.63546,-3.686321 -19.48636,-3.708234 V 258.17118 h 50.5963 V 157.55579 c 3.8719,-8.13325 6.06615,-17.31431 6.06615,-27.04412 0,-0.1804 -0.0104,-0.35876 -0.0124,-0.5378 h 0.004"
       inkscape:connector-curvature="0" />
    <path
       id="path168"
       style="fill:#b16d29;fill-opacity:1;fill-rule:nonzero;stroke:none;stroke-width:0.07306855"
       d="m 123.56647,153.62033 c 0,-2.68747 -0.86805,-5.17034 -2.33964,-7.18629 -2.10877,-2.8906 -3.27055,-6.44904 -2.57275,-9.95852 0.19656,-0.98496 0.24039,-2.02326 0.10895,-3.093 -0.52901,-4.27595 -4.00926,-7.75329 -8.28524,-8.27938 -2.15552,-0.26597 -4.19048,0.18848 -5.89956,1.15229 -1.70469,0.96159 -3.84121,0.96159 -5.545172,0 -1.709058,-0.96379 -3.743301,-1.41826 -5.899559,-1.15229 -4.27596,0.52609 -7.756213,4.00343 -8.285227,8.27938 -0.132352,1.06974 -0.08761,2.10804 0.108947,3.093 0.697798,3.50948 -0.463978,7.06792 -2.573468,9.95852 -1.470887,2.01595 -2.338941,4.49882 -2.338941,7.18629 0,4.52367 2.458762,8.46645 6.109996,10.57959 2.255637,1.30428 4.231408,3.02357 5.683281,5.18641 2.192049,3.26688 5.912711,5.41877 10.144093,5.41877 4.33736,0 8.13911,-2.26221 10.30632,-5.66794 1.34521,-2.11168 3.26253,-3.76157 5.40196,-5.06437 3.52336,-2.14675 5.87618,-6.02377 5.87618,-10.45246"
       inkscape:connector-curvature="0" />
    <path
       id="path170"
       style="fill:#6d4a2a;fill-opacity:1;fill-rule:nonzero;stroke:none;stroke-width:0.07306855"
       d="m 118.65481,136.47552 c 0.19656,-0.98496 0.24039,-2.02399 0.10895,-3.093 -0.52974,-4.27595 -4.00927,-7.75329 -8.28523,-8.27938 -2.15626,-0.26597 -4.19122,0.18848 -5.9003,1.15301 -0.80302,0.4523 -1.70322,0.68392 -2.60781,0.71023 v 47.83724 c 0.004,0 0.008,0.002 0.0124,0.002 4.33663,0 8.1391,-2.2622 10.30632,-5.66793 1.34446,-2.11239 3.26252,-3.76157 5.40121,-5.06438 3.5241,-2.14602 5.87764,-6.02522 5.87764,-10.45244 0,-2.68746 -0.86877,-5.17034 -2.33966,-7.18556 -2.10875,-2.8906 -3.27127,-6.44977 -2.57272,-9.95924"
       inkscape:connector-curvature="0" />
    <path
       id="path172"
       style="fill:#29282a;fill-opacity:1;fill-rule:nonzero;stroke:none;stroke-width:0.07306855"
       d="m 101.40042,149.48902 h 1.11287 v -11.0956 h -1.11287 z"
       inkscape:connector-curvature="0" />
    <path
       id="path174"
       style="fill:#ffffff;fill-opacity:1;fill-rule:nonzero;stroke:none;stroke-width:0.07306855"
       d="m 109.71269,166.24584 h -7.32365 v -14.26152 l 2.51427,2.93662 c 0.75407,0.88048 1.70688,1.56951 2.77881,2.01013 l 2.03057,0.83589"
       inkscape:connector-curvature="0" />
    <path
       id="path176"
       style="fill:#ffffff;fill-opacity:1;fill-rule:nonzero;stroke:none;stroke-width:0.07306855"
       d="m 94.200972,166.24584 h 7.323658 v -14.26152 l -2.544989,3.37431 c -0.722633,0.95792 -1.750711,1.64112 -2.913958,1.93484 l -1.864711,0.47349"
       inkscape:connector-curvature="0" />
    <path
       id="path178"
       style="fill:#29282a;fill-opacity:1;fill-rule:nonzero;stroke:none;stroke-width:0.07306855"
       d="m 101.39091,149.91721 c 0,3.54821 -2.877442,6.42637 -6.427103,6.42637 -3.548935,0 -6.427123,-2.87816 -6.427123,-6.42637 H 87.41509 c 0,4.16929 3.380151,7.54871 7.548717,7.54871 4.169291,0 7.549443,-3.37942 7.549443,-7.54871"
       inkscape:connector-curvature="0" />
    <path
       id="path180"
       style="fill:#121112;fill-opacity:1;fill-rule:nonzero;stroke:none;stroke-width:0.07306855"
       d="m 115.37696,149.48902 c 0,3.54821 -2.87744,6.4264 -6.4271,6.4264 -3.54896,0 -6.42712,-2.87819 -6.42712,-6.4264 h -1.12232 c 0,4.16929 3.38087,7.54944 7.54944,7.54944 4.17001,0 7.54944,-3.38015 7.54944,-7.54944"
       inkscape:connector-curvature="0" />
    <path
       id="path182"
       style="fill:#29282a;fill-opacity:1;fill-rule:nonzero;stroke:none;stroke-width:0.07306855"
       d="m 96.084676,135.77405 c -1.513989,-1.51324 -2.626822,-3.14705 -3.366273,-4.42063 -0.53558,-0.91921 0.19946,-1.655 1.117949,-1.12014 1.273581,0.74164 2.907391,1.85302 4.420656,3.36699 1.514714,1.51399 2.626802,3.1478 3.367722,4.42066 0.53486,0.91919 -0.20091,1.65427 -1.11942,1.1194 -1.273579,-0.74018 -2.908115,-1.85301 -4.420634,-3.36628"
       inkscape:connector-curvature="0" />
    <path
       id="path184"
       style="fill:#121112;fill-opacity:1;fill-rule:nonzero;stroke:none;stroke-width:0.07306855"
       d="m 107.71791,135.88658 c 1.48476,-1.48474 2.56618,-3.09664 3.28297,-4.35706 0.5166,-0.90899 -0.23308,-1.65792 -1.14206,-1.14134 -1.2597,0.71607 -2.87158,1.79823 -4.35635,3.28297 -1.48474,1.48474 -2.56615,3.09592 -3.28296,4.35635 -0.51659,0.90825 0.23309,1.65866 1.14133,1.14205 1.2597,-0.71679 2.87232,-1.7982 4.35707,-3.28297"
       inkscape:connector-curvature="0" />
    <path
       id="path186"
       style="fill:#29282a;fill-opacity:1;fill-rule:nonzero;stroke:none;stroke-width:0.07306855"
       d="m 63.865094,94.19587 h -0.0021 c -4.533891,0 -8.221662,-3.688496 -8.221662,-8.222407 v -1.482548 h -2.157729 v 1.482548 c 0,4.452802 2.824833,8.248711 6.771259,9.719578 -1.639651,1.448227 -2.924914,3.845598 -3.582531,6.753739 l 3.582531,2.06783 4.072129,2.35135 -4.072129,2.35135 -3.582531,2.06856 c 1.088723,4.81523 3.893817,8.25163 7.192858,8.25163 4.243814,0 7.683886,-5.67377 7.683886,-12.67154 0,-6.997042 -3.440072,-12.67009 -7.683886,-12.67009"
       inkscape:connector-curvature="0" />
    <path
       id="path188"
       style="fill:#121112;fill-opacity:1;fill-rule:nonzero;stroke:none;stroke-width:0.07306855"
       d="m 147.97064,84.490915 v 1.482548 c 0,4.533911 -3.68849,8.222407 -8.2224,8.222407 v 0.04101 c -0.16363,-0.01657 -0.32589,-0.04101 -0.49248,-0.04101 -3.29904,0 -6.10415,3.43568 -7.19288,8.25091 l 3.58255,2.06783 4.07286,2.35208 -4.07286,2.35134 -3.58255,2.06784 c 1.08873,4.81523 3.89384,8.25091 7.19288,8.25091 4.24381,0 7.68389,-5.67305 7.68389,-12.67009 0,-4.74653 -1.5856,-8.877106 -3.92816,-11.047967 4.12764,-1.372234 7.11614,-5.263131 7.11614,-9.84526 v -1.482548"
       inkscape:connector-curvature="0" />
    <path
       id="path190"
       style="fill:#cd9358;fill-opacity:1;fill-rule:nonzero;stroke:none;stroke-width:0.07306855"
       d="m 150.33367,4.7000508 v 0 c -1.44309,1.614092 -2.36961,3.623479 -2.63703,5.7724262 -0.79206,6.375239 -3.56428,21.590298 -12.93972,38.415784 -1.17785,2.116055 -0.7738,4.762617 1.0142,6.397152 l 7.44349,6.800483 c 9.97679,-5.99672 16.37174,-17.807519 13.4227,-31.094301 L 151.2032,6.5004708 c -0.15555,-0.699269 -0.46472,-1.299161 -0.86953,-1.80042"
       inkscape:connector-curvature="0" />
    <path
       id="path192"
       style="fill:#d6a068;fill-opacity:1;fill-rule:nonzero;stroke:none;stroke-width:0.07306855"
       d="m 53.368803,4.7000508 v 0 c 1.443837,1.614092 2.369616,3.623479 2.637034,5.7724262 0.792806,6.375239 3.565029,21.590298 12.939725,38.415784 1.17932,2.116055 0.774518,4.762617 -1.013475,6.397152 l -7.443478,6.800483 C 50.511823,56.089176 44.11686,44.278377 47.065911,30.991595 L 52.500747,6.5004708 c 0.154182,-0.699269 0.463987,-1.299161 0.868056,-1.80042"
       inkscape:connector-curvature="0" />
    <path
       id="path194"
       style="fill:#121112;fill-opacity:1;fill-rule:nonzero;stroke:none;stroke-width:0.07306855"
       d="m 101.96961,149.48902 h 0.54374 v -11.0956 h -0.54374 z"
       inkscape:connector-curvature="0" />
    <path
       id="path196"
       style="fill:#fdf8e2;fill-opacity:1;fill-rule:nonzero;stroke:none;stroke-width:0.07306855"
       d="m 151.98795,145.19552 c 0,1.49061 0.28715,2.91106 0.78986,4.22557 -3.0579,2.14163 -5.06145,5.68473 -5.06145,9.70056 0,0.91045 0.1133,1.79458 0.30762,2.64656 -0.70219,-0.1307 -1.4241,-0.20671 -2.16283,-0.20671 -6.5104,0 -11.78961,5.25362 -11.83857,11.75233 -2.16282,-2.32869 -5.2412,-3.79444 -8.67031,-3.79444 -5.23171,0 -9.6633,3.39769 -11.2299,8.10403 -2.11605,-1.97504 -4.94892,-3.19309 -8.07189,-3.19309 -3.76886,0 -7.119783,1.76605 -9.288468,4.5105 -2.113861,-3.23765 -5.762174,-5.38148 -9.916863,-5.38148 -0.56263,0 -1.112087,0.0532 -1.653529,0.12925 -1.025157,-5.49696 -5.838913,-9.66113 -11.633253,-9.66113 -3.593509,0 -6.8056,1.60678 -8.977931,4.13348 -1.108442,-4.55947 -4.846626,-8.07699 -9.523018,-8.86248 -0.969627,-2.21983 -2.601975,-4.07723 -4.644237,-5.33985 0.459598,-1.26335 0.723378,-2.62023 0.723378,-4.04141 0,-3.75792 -1.755108,-7.09934 -4.484218,-9.2702 2.72911,-2.16869 4.484218,-5.51158 4.484218,-9.26803 0,-3.90113 -1.896128,-7.35216 -4.807179,-9.50987 1.453333,-1.96626 2.322117,-4.38996 2.322117,-7.02187 0,-3.43057 -1.466486,-6.51041 -3.79737,-8.67326 2.330884,-2.16282 3.79737,-5.24339 3.79737,-8.673228 0,-2.772948 -0.960121,-5.317915 -2.556666,-7.336084 4.592357,-1.630145 7.885545,-6.000387 7.885545,-11.150987 0,-0.727024 -0.07518,-1.435055 -0.200288,-2.125563 0.39457,-0.04888 0.782575,-0.115368 1.163992,-0.201738 2.013758,3.662936 5.906125,6.146532 10.381586,6.146532 6.163331,0 11.22259,-4.709262 11.78667,-10.724996 2.019619,1.601644 4.568977,2.565431 7.347786,2.565431 3.548211,0 6.723041,-1.567324 8.893901,-4.039963 1.481099,4.851017 5.98943,8.380234 11.324887,8.380234 5.08484,0 9.40831,-3.210641 11.0867,-7.71019 2.13432,2.083185 5.04829,3.369919 8.26623,3.369919 5.00592,0 9.27751,-3.110538 11.00925,-7.501224 1.90489,3.991745 5.96604,6.755932 10.68262,6.755932 0.38067,0 0.75625,-0.02113 1.12818,-0.05634 0.51439,5.019077 4.16854,9.096302 8.96184,10.267585 -1.31741,1.909285 -2.09268,4.2219 -2.09268,6.716454 0,3.295396 1.34666,6.27294 3.51824,8.418967 -2.17158,2.146749 -3.51824,5.125019 -3.51824,8.419689 0,3.4269 1.46356,6.50382 3.79152,8.66665 -2.32796,2.1621 -3.79152,5.24049 -3.79152,8.66739 0,3.93035 1.92244,7.40331 4.87076,9.55738 -3.90919,1.93557 -6.60394,5.95217 -6.60394,10.60954 m -9.33889,127.98029 c 0.25938,-0.24112 0.5071,-0.49248 0.74384,-0.75553 0.0694,0.0665 0.14623,0.12573 0.21554,0.19138 -0.2645,0.24551 -0.51659,0.50271 -0.75772,0.77233 -0.0694,-0.0679 -0.13153,-0.14168 -0.20174,-0.20825 M 173.88717,99.274723 c 2.17088,-2.146027 3.51826,-5.123571 3.51826,-8.418967 0,-5.567085 -3.84707,-10.225208 -9.02617,-11.491478 1.31818,-1.908559 2.09417,-4.22045 2.09417,-6.716453 0,-6.538908 -5.30187,-11.841496 -11.84222,-11.841496 -0.38142,0 -0.75627,0.02195 -1.12819,0.05634 -0.5451,-5.312819 -4.60623,-9.571256 -9.81531,-10.442956 -0.29883,-6.274411 -5.46625,-11.273749 -11.81372,-11.273749 -0.56263,0 -1.1121,0.05323 -1.65352,0.128623 -1.02516,-5.495482 -5.83964,-9.660382 -11.63326,-9.660382 -2.62462,0 -5.04026,0.864389 -7.00288,2.30895 -1.80187,-4.243089 -6.0055,-7.218438 -10.90548,-7.218438 -5.28432,0 -9.757565,3.463456 -11.281062,8.242871 -2.171585,-2.50114 -5.365408,-4.088928 -8.937728,-4.088928 -6.194751,0 -11.270829,4.758972 -11.790356,10.819259 -1.111362,-0.345607 -2.292152,-0.531935 -3.517515,-0.531935 -6.540358,0 -11.842945,5.302588 -11.842945,11.842946 0,1.295515 0.215553,2.539871 0.599891,3.706038 -1.661585,-0.888497 -3.558443,-1.395597 -5.575129,-1.395597 -6.539632,0 -11.841487,5.301842 -11.841487,11.84222 0,0.727749 0.07452,1.4358 0.200206,2.127012 -5.857175,0.713147 -10.396919,5.695688 -10.396919,11.745038 0,2.773694 0.960849,5.317936 2.556667,7.335359 -4.591628,1.630145 -7.885556,6.000366 -7.885556,11.151712 0,3.42982 1.467215,6.51041 3.7981,8.67323 -2.330885,2.16283 -3.7981,5.24267 -3.7981,8.67323 0,3.90186 1.895395,7.35216 4.80718,9.50987 -1.454067,1.96628 -2.32285,4.38923 -2.32285,7.0219 0,3.75645 1.755108,7.09934 4.484212,9.268 -2.729104,2.17086 -4.484212,5.5123 -4.484212,9.27021 0,4.25843 2.256355,7.98274 5.632121,10.06884 -0.459603,1.26335 -0.723378,2.62024 -0.723378,4.04142 0,5.86741 4.271589,10.72501 9.872292,11.6654 0.903128,2.07075 2.376919,3.83464 4.228476,5.08703 -1.414609,1.95166 -2.257817,4.34319 -2.257817,6.93565 0,2.8146 0.98569,5.39685 2.625349,7.42815 -1.873475,2.09562 -3.020655,4.8503 -3.020655,7.88192 0,3.42545 1.463566,6.50237 3.789338,8.66519 -0.529014,1.34446 -0.830062,2.80365 -0.830062,4.33591 0,2.1599 0.587473,4.17805 1.59728,5.92147 -3.380148,2.08536 -5.640888,5.81114 -5.640888,10.07469 0,4.34831 2.351342,8.13983 5.844023,10.19816 -3.492681,2.06054 -5.844023,5.85061 -5.844023,10.19892 0,2.45071 0.744565,4.72753 2.019613,6.61563 -1.167638,1.83546 -1.853751,4.00634 -1.853751,6.34234 0,3.42692 1.460643,6.50674 3.788607,8.66592 -2.325042,2.1621 -3.788607,5.23902 -3.788607,8.66447 0,6.54038 5.302584,11.84295 11.842945,11.84295 3.848519,0 7.25717,-1.8435 9.42074,-4.68735 1.852285,4.12254 5.985039,6.99779 10.79807,6.99779 4.132029,0 7.76572,-2.11972 9.884696,-5.32817 2.16065,2.87964 5.591215,4.75092 9.467509,4.75092 4.527325,0 8.458405,-2.54277 10.450995,-6.27659 1.99184,3.73382 5.92292,6.27659 10.45024,6.27659 4.63474,0 8.63672,-2.66846 10.58179,-6.54767 2.16869,2.41783 5.30698,3.9479 8.80987,3.9479 3.49707,0 6.62953,-1.52423 8.79674,-3.93475 2.13433,2.08391 5.0483,3.37139 8.26696,3.37139 6.54038,0 11.8415,-5.30259 11.8415,-11.84222 0,-3.42619 -1.46356,-6.50237 -3.7886,-8.6652 2.32504,-2.16284 3.7886,-5.23902 3.7886,-8.66594 0,-2.44998 -0.74385,-4.72533 -2.01815,-6.6149 1.16689,-1.83546 1.85228,-4.00707 1.85228,-6.34234 0,-4.42795 -2.43465,-8.28231 -6.034,-10.31361 0.99081,-1.73174 1.56585,-3.73162 1.56585,-5.86887 0,-2.56617 -0.82493,-4.93432 -2.21251,-6.8743 1.80479,-2.07807 2.90447,-4.78453 2.90447,-7.75329 0,-3.42327 -1.46136,-6.498 -3.78421,-8.6601 1.21513,-1.86032 1.92828,-4.07868 1.92828,-6.46656 0,-2.05835 -0.52609,-3.99175 -1.44968,-5.67742 2.04298,-2.12776 3.30561,-5.01179 3.30561,-8.19391 0,-4.01512 -2.00208,-7.55675 -5.05853,-9.69766 1.98088,-2.11753 3.2026,-4.95332 3.2026,-8.08138 0,-0.9119 -0.1133,-1.79456 -0.30834,-2.64654 0.70291,0.12925 1.42409,0.20752 2.16427,0.20752 6.53963,0 11.84149,-5.30259 11.84149,-11.84297 0,-1.49058 -0.28715,-2.91178 -0.78986,-4.22626 3.05791,-2.14091 5.06218,-5.68473 5.06218,-9.69986 0,-3.93108 -1.92389,-7.40477 -4.87148,-9.55809 3.90991,-1.93486 6.60394,-5.95216 6.60394,-10.60884 0,-3.4269 -1.4643,-6.50527 -3.79154,-8.66739 2.32724,-2.16282 3.79154,-5.23972 3.79154,-8.66664 0,-3.29467 -1.34738,-6.27294 -3.51826,-8.419695"
       inkscape:connector-curvature="0" />
    <path
       id="path198"
       style="fill:#ebd0b3;fill-opacity:1;fill-rule:nonzero;stroke:none;stroke-width:0.07306855"
       d="m 142.85146,273.38332 c -0.0694,-0.0679 -0.13152,-0.14105 -0.20173,-0.20752 0.25793,-0.23966 0.50708,-0.4932 0.74382,-0.75552 0.0679,0.0665 0.14457,0.12572 0.21555,0.18993 -0.26522,0.24697 -0.51658,0.50418 -0.75772,0.77307 M 168.38007,79.365107 c 1.31815,-1.91001 2.09342,-4.222626 2.09342,-6.716454 0,-6.541103 -5.30187,-11.842945 -11.8415,-11.842945 -0.38142,0 -0.75625,0.02258 -1.1289,0.05634 -0.54437,-5.311349 -4.60552,-9.571257 -9.81457,-10.442956 -0.30031,-6.273666 -5.46625,-11.2723 -11.81444,-11.2723 -0.56263,0 -1.11139,0.05261 -1.65355,0.127795 -1.02516,-5.496207 -5.83892,-9.659657 -11.63251,-9.659657 -2.62463,0 -5.04027,0.862959 -7.00363,2.307521 -1.80187,-4.243089 -6.0055,-7.218438 -10.90473,-7.218438 -0.93747,0 -1.8479,0.113296 -2.72254,0.320751 v 53.66738 c 0.87464,0.206088 1.78433,0.320793 2.72254,0.320793 5.08484,0 9.40829,-3.210641 11.08669,-7.709466 2.13432,2.08244 5.04758,3.369919 8.26623,3.369919 5.00593,0 9.27607,-3.111263 11.00923,-7.501223 1.90417,3.991745 5.96532,6.75591 10.68264,6.75591 0.38068,0 0.75625,-0.02113 1.12744,-0.05696 0.51586,5.019078 4.16929,9.095577 8.96258,10.268331 -1.31741,1.908539 -2.09267,4.221176 -2.09267,6.716454 0,3.293925 1.34665,6.271469 3.51751,8.419691 -2.17086,2.146029 -3.51751,5.123569 -3.51751,8.418219 0,3.42692 1.46355,6.50604 3.79007,8.66814 -2.32652,2.16208 -3.79007,5.239 -3.79007,8.66592 0,3.93182 1.92244,7.40477 4.87001,9.5581 -3.90916,1.93412 -6.6032,5.95215 -6.6032,10.60882 0,1.49059 0.28643,2.91179 0.78914,4.22555 -3.05718,2.14091 -5.06073,5.68473 -5.06073,9.70058 0,0.91116 0.11185,1.79456 0.3069,2.64654 -0.70219,-0.13069 -1.4234,-0.20609 -2.16285,-0.20609 -6.51041,0 -11.78886,5.25435 -11.83855,11.75235 -2.1621,-2.32943 -5.24047,-3.79446 -8.66959,-3.79446 -5.23243,0 -9.66404,3.3977 -11.22989,8.10404 -2.11608,-1.97505 -4.94893,-3.19382 -8.0719,-3.19382 -1.44089,0 -2.81824,0.26157 -4.09402,0.73433 v 118.30313 c 1.13549,-0.96377 2.0905,-2.13433 2.79706,-3.45907 1.99259,3.73307 5.92294,6.27586 10.45099,6.27586 4.63474,0 8.63671,-2.66845 10.58179,-6.54766 2.16794,2.41711 5.30623,3.94789 8.80987,3.94789 3.49633,0 6.62878,-1.52494 8.79672,-3.93402 2.13434,2.08319 5.0483,3.37139 8.26625,3.37139 6.54036,0 11.84222,-5.30186 11.84222,-11.84222 0,-3.42692 -1.46357,-6.50384 -3.78934,-8.66594 2.32577,-2.16135 3.78934,-5.23827 3.78934,-8.66447 0,-2.45143 -0.74456,-4.72606 -2.01889,-6.61635 1.16691,-1.83474 1.8523,-4.00635 1.8523,-6.34162 0,-4.42867 -2.43392,-8.28158 -6.03327,-10.31436 0.99007,-1.73026 1.5644,-3.73087 1.5644,-5.86886 0,-2.56543 -0.82423,-4.93358 -2.21106,-6.87356 1.80406,-2.07879 2.90374,-4.78525 2.90374,-7.75329 0,-3.424 -1.46138,-6.498 -3.78423,-8.66155 1.21514,-1.85959 1.92828,-4.07722 1.92828,-6.46511 0,-2.0576 -0.52609,-3.99174 -1.44968,-5.67816 2.04373,-2.12702 3.30563,-5.01177 3.30563,-8.19316 0,-4.01513 -2.00282,-7.55603 -5.05853,-9.69839 1.98089,-2.1168 3.20258,-4.95332 3.20258,-8.08065 0,-0.91118 -0.11247,-1.79456 -0.30762,-2.64654 0.70294,0.13007 1.42338,0.20608 2.16357,0.20608 6.54036,0 11.84222,-5.30186 11.84222,-11.84222 0,-1.4906 -0.28715,-2.91178 -0.78986,-4.22556 3.05718,-2.14164 5.06145,-5.68401 5.06145,-9.70056 0,-3.92963 -1.92316,-7.40332 -4.87148,-9.55811 3.90989,-1.93412 6.60467,-5.95142 6.60467,-10.60882 0,-3.42692 -1.46503,-6.50384 -3.79154,-8.66592 2.32651,-2.16212 3.79154,-5.24122 3.79154,-8.66814 0,-3.29465 -1.3474,-6.27219 -3.51826,-8.418217 2.17086,-2.148222 3.51826,-5.125767 3.51826,-8.419692 0,-5.568555 -3.84852,-10.225932 -9.02617,-11.490752"
       inkscape:connector-curvature="0" />
  </g>
</svg>
