<?xml version="1.0" encoding="UTF-8" standalone="no"?>
<!-- Created with Inkscape (http://www.inkscape.org/) -->

<svg
   xmlns:dc="http://purl.org/dc/elements/1.1/"
   xmlns:cc="http://creativecommons.org/ns#"
   xmlns:rdf="http://www.w3.org/1999/02/22-rdf-syntax-ns#"
   xmlns:svg="http://www.w3.org/2000/svg"
   xmlns="http://www.w3.org/2000/svg"
   xmlns:sodipodi="http://sodipodi.sourceforge.net/DTD/sodipodi-0.dtd"
   xmlns:inkscape="http://www.inkscape.org/namespaces/inkscape"
   width="210mm"
   height="297mm"
   viewBox="0 0 210 297"
   version="1.1"
   id="svg78595"
   inkscape:version="0.92.1 r15371"
   sodipodi:docname="lama grey.svg">
  <defs
     id="defs78589" />
  <sodipodi:namedview
     id="base"
     pagecolor="#ffffff"
     bordercolor="#666666"
     borderopacity="1.0"
     inkscape:pageopacity="0.0"
     inkscape:pageshadow="2"
     inkscape:zoom="0.35"
     inkscape:cx="-70"
     inkscape:cy="560"
     inkscape:document-units="mm"
     inkscape:current-layer="layer1"
     showgrid="false"
     inkscape:window-width="1920"
     inkscape:window-height="1001"
     inkscape:window-x="-9"
     inkscape:window-y="-9"
     inkscape:window-maximized="1" />
  <metadata
     id="metadata78592">
    <rdf:RDF>
      <cc:Work
         rdf:about="">
        <dc:format>image/svg+xml</dc:format>
        <dc:type
           rdf:resource="http://purl.org/dc/dcmitype/StillImage" />
        <dc:title></dc:title>
      </cc:Work>
    </rdf:RDF>
  </metadata>
  <g
     inkscape:label="Layer 1"
     inkscape:groupmode="layer"
     id="layer1">
    <path
       id="path56"
       style="fill:#ffffff;fill-opacity:1;fill-rule:nonzero;stroke:none;stroke-width:0.07160959"
       d="m 159.25963,125.44313 v -25.14641 c 0,-0.10738 0.006,-0.21125 0.006,-0.317945 0,-15.442624 -5.7073,-29.463762 -15.00226,-39.855763 9.70313,-5.748817 15.94031,-17.188438 13.08308,-30.058818 L 152.11221,6.4638181 c -0.72327,-3.2453486 -4.74056,-4.4161619 -7.09653,-2.0659489 -3.32986,13.8808128 -8.75069,27.1314498 -16.02624,39.3229778 -1.13139,1.904817 -3.48022,2.656725 -5.54258,1.848245 -5.90059,-2.307261 -12.281,-3.576889 -18.93354,-3.576889 -6.659707,0 -13.040121,1.269628 -18.940773,3.576889 -2.062336,0.80848 -4.411122,0.05663 -5.549713,-1.848245 C 72.754479,31.529319 67.333598,18.278682 64.003752,4.3978692 61.647833,2.0476562 57.630536,3.2184695 56.90726,6.4638181 L 51.672583,30.064194 c -2.857222,12.87038 3.380008,24.310001 13.08307,30.058818 -9.294888,10.392001 -15.00219,24.413139 -15.00219,39.855763 v 25.464355 h 0.0069 c 0,0.17335 -0.0069,0.34445 -0.0069,0.51918 0,9.11732 1.990764,17.74055 5.535438,25.41568 V 290.72592 H 153.42268 V 152.02247 c 3.73081,-7.83695 5.84333,-16.68505 5.84333,-26.06016 0,-0.17477 -0.006,-0.34587 -0.0142,-0.51918"
       inkscape:connector-curvature="0" />
    <path
       id="path58"
       style="fill:#dbdbdb;fill-opacity:1;fill-rule:nonzero;stroke:none;stroke-width:0.07160959"
       d="m 159.25963,100.29672 c 0,-0.10738 0.006,-0.21125 0.006,-0.317235 0,-15.443334 -5.7073,-29.464472 -15.00226,-39.857184 9.70313,-5.748106 15.94031,-17.187727 13.08308,-30.058838 L 152.11302,6.4638181 C 151.38976,3.21918 147.37247,2.0469458 145.01649,4.3978692 141.68664,18.278682 136.26581,31.529319 128.99026,43.720847 c -1.1314,1.904817 -3.48023,2.656725 -5.54258,1.848245 -5.85762,-2.289358 -12.1808,-3.553261 -18.77603,-3.572606 V 290.72592 h 48.75184 V 152.02174 c 3.73082,-7.83622 5.84333,-16.68359 5.84333,-26.06014 0,-0.17335 -0.006,-0.34589 -0.0142,-0.51847 h 0.006"
       inkscape:connector-curvature="0" />
    <path
       id="path60"
       style="fill:#6d6e70;fill-opacity:1;fill-rule:nonzero;stroke:none;stroke-width:0.07160959"
       d="m 125.89672,147.33634 c 0,-2.59013 -0.83783,-4.9826 -2.24849,-6.92465 -2.03374,-2.78633 -3.15799,-6.21571 -2.48488,-9.59641 0.19325,-0.94882 0.23632,-1.95136 0.10738,-2.9811 -0.50844,-4.1197 -3.85977,-7.47102 -7.98448,-7.97803 -2.07665,-0.25564 -4.03879,0.18188 -5.68577,1.11067 -1.6399,0.92662 -3.70226,0.92662 -5.34209,0 -1.64705,-0.92877 -3.609126,-1.36631 -5.685833,-1.11067 -4.117506,0.50701 -7.47604,3.85833 -7.984423,7.97803 -0.121793,1.02974 -0.08586,2.03228 0.10738,2.9811 0.673108,3.3807 -0.443995,6.81008 -2.47773,9.59641 -1.417869,1.94205 -2.255702,4.33452 -2.255702,6.92465 0,4.35888 2.370309,8.15848 5.886301,10.19362 2.176984,1.25676 4.074615,2.91379 5.478133,4.99835 2.112535,3.14795 5.700164,5.22105 9.774714,5.22105 4.18202,0 7.84126,-2.17908 9.9323,-5.46094 1.29611,-2.03658 3.14363,-3.62632 5.20598,-4.88164 3.3943,-2.06737 5.65715,-5.80394 5.65715,-10.07044"
       inkscape:connector-curvature="0" />
    <path
       id="path62"
       style="fill:#565759;fill-opacity:1;fill-rule:nonzero;stroke:none;stroke-width:0.07160959"
       d="m 121.16335,130.81528 c 0.19325,-0.94882 0.23632,-1.95136 0.10738,-2.9811 -0.50844,-4.1197 -3.85977,-7.47102 -7.98448,-7.97803 -2.07665,-0.25564 -4.03879,0.18188 -5.68577,1.11067 -0.77339,0.43681 -1.6399,0.66024 -2.5135,0.68531 v 46.09652 c 0.006,0 0.006,5.3e-4 0.0142,5.3e-4 4.18202,0 7.84126,-2.17908 9.9323,-5.46094 1.29609,-2.03658 3.14363,-3.62488 5.20598,-4.8802 3.3943,-2.06881 5.65715,-5.80539 5.65715,-10.07189 0,-2.59012 -0.83065,-4.9826 -2.24851,-6.92535 -2.03374,-2.78491 -3.15799,-6.21429 -2.48488,-9.5957"
       inkscape:connector-curvature="0" />
    <path
       id="path64"
       style="fill:#565759;fill-opacity:1;fill-rule:nonzero;stroke:none;stroke-width:0.07160959"
       d="m 117.87647,98.501465 c 0,13.527055 10.96341,24.492615 24.49048,24.492615 6.55228,0 12.49589,-2.57721 16.89268,-6.76566 v -15.9317 c 0,-0.10677 0.006,-0.21196 0.006,-0.317945 0,-7.973729 -1.53249,-15.562915 -4.28229,-22.474669 -3.68786,-2.218474 -7.99877,-3.495267 -12.6176,-3.495267 -13.52706,0 -24.49047,10.964852 -24.49047,24.492626"
       inkscape:connector-curvature="0" />
    <path
       id="path66"
       style="fill:#6d6e70;fill-opacity:1;fill-rule:nonzero;stroke:none;stroke-width:0.07160959"
       d="m 66.654156,122.99408 c 13.527013,0 24.490467,-10.96627 24.490467,-24.492615 0,-13.527063 -10.963454,-24.493337 -24.490467,-24.493337 -4.618819,0 -8.929734,1.277504 -12.617645,3.495247 -2.749808,6.911755 -4.282236,14.501671 -4.282236,22.4754 v 16.242475 c 4.396847,4.19275 10.340407,6.77283 16.899881,6.77283"
       inkscape:connector-curvature="0" />
    <path
       id="path68"
       style="fill:#6d6e70;fill-opacity:1;fill-rule:nonzero;stroke:none;stroke-width:0.07160959"
       d="m 104.74328,183.31156 c -12.374133,0 -22.270586,-5.26833 -27.147199,-14.45369 l 1.661325,-0.88437 c 4.611667,8.67478 13.663096,13.45259 25.485874,13.45259 11.82987,0 20.88136,-4.77781 25.49298,-13.45259 l 1.66139,0.88437 c -4.87662,9.18536 -14.77309,14.45369 -27.15437,14.45369"
       inkscape:connector-curvature="0" />
    <path
       id="path70"
       style="fill:#29282a;fill-opacity:1;fill-rule:nonzero;stroke:none;stroke-width:0.07160959"
       d="m 104.12029,144.24853 h 1.07135 v -10.69139 h -1.07135 z"
       inkscape:connector-curvature="0" />
    <path
       id="path72"
       style="fill:#29282a;fill-opacity:1;fill-rule:nonzero;stroke:none;stroke-width:0.07160959"
       d="m 104.11309,144.66029 c 0,3.42079 -2.77129,6.19279 -6.194216,6.19279 -3.422923,0 -6.194214,-2.772 -6.194214,-6.19279 h -1.081336 c 0,4.01729 3.258259,7.27482 7.27555,7.27482 4.017316,0 7.275546,-3.25753 7.275546,-7.27482"
       inkscape:connector-curvature="0" />
    <path
       id="path74"
       style="fill:#121112;fill-opacity:1;fill-rule:nonzero;stroke:none;stroke-width:0.07160959"
       d="m 117.59006,144.24853 c 0,3.41937 -2.7713,6.19279 -6.19428,6.19279 -3.42292,0 -6.19421,-2.77342 -6.19421,-6.19279 h -1.08128 c 0,4.01658 3.2582,7.27482 7.27549,7.27482 4.01729,0 7.27555,-3.25824 7.27555,-7.27482"
       inkscape:connector-curvature="0" />
    <path
       id="path76"
       style="fill:#29282a;fill-opacity:1;fill-rule:nonzero;stroke:none;stroke-width:0.07160959"
       d="m 99.000169,131.03299 c -1.460842,-1.45798 -2.534993,-3.03195 -3.243927,-4.26007 -0.515589,-0.8858 0.193244,-1.59402 1.07415,-1.07914 1.23173,0.71537 2.807118,1.78666 4.260818,3.24462 1.46082,1.45869 2.52776,3.03267 3.24391,4.25933 0.51558,0.88582 -0.19325,1.59475 -1.07416,1.07916 -1.2317,-0.71466 -2.80709,-1.78521 -4.260791,-3.2439"
       inkscape:connector-curvature="0" />
    <path
       id="path78"
       style="fill:#121112;fill-opacity:1;fill-rule:nonzero;stroke:none;stroke-width:0.07160959"
       d="m 110.20709,131.14112 c 1.4322,-1.43076 2.47052,-2.98469 3.16512,-4.19848 0.4941,-0.87506 -0.22196,-1.59833 -1.10277,-1.0992 -1.21019,0.68959 -2.76414,1.73224 -4.1963,3.163 -1.43221,1.43003 -2.47053,2.98467 -3.16519,4.19774 -0.4941,0.8758 0.22917,1.59833 1.10283,1.0992 1.21019,-0.68959 2.76408,-1.7315 4.19631,-3.16226"
       inkscape:connector-curvature="0" />
    <path
       id="path80"
       style="fill:#29282a;fill-opacity:1;fill-rule:nonzero;stroke:none;stroke-width:0.07160959"
       d="m 67.950271,90.967413 v 0 c -4.368167,0 -7.927181,-3.554702 -7.927181,-7.922877 v -1.429339 h -2.076697 v 1.429339 c 0,4.290837 2.721184,7.948657 6.523653,9.365105 -1.575395,1.396374 -2.814258,3.706497 -3.451601,6.508584 l 3.451601,1.992895 3.924222,2.26573 -3.924222,2.26573 -3.451601,1.99289 c 1.05266,4.6403 3.752359,7.95154 6.931826,7.95154 4.088889,0 7.404447,-5.46668 7.404447,-12.21016 0,-6.742752 -3.315558,-12.209437 -7.404447,-12.209437"
       inkscape:connector-curvature="0" />
    <path
       id="path82"
       style="fill:#121112;fill-opacity:1;fill-rule:nonzero;stroke:none;stroke-width:0.07160959"
       d="m 148.99801,81.615928 v 1.428608 c 0,4.368906 -3.559,7.923588 -7.92718,7.923588 v 0.03857 c -0.15752,-0.01624 -0.3151,-0.03857 -0.47261,-0.03857 -3.17948,0 -5.87918,3.311238 -6.93183,7.950101 l 3.4516,1.993625 3.92416,2.265 -3.92416,2.26573 -3.4516,1.9936 c 1.05265,4.63959 3.75235,7.9501 6.93183,7.9501 4.08888,0 7.40438,-5.46595 7.40438,-12.20943 0,-4.572995 -1.52529,-8.553769 -3.78812,-10.644766 3.98147,-1.322628 6.86018,-5.072828 6.86018,-9.487548 v -1.428608"
       inkscape:connector-curvature="0" />
    <path
       id="path84"
       style="fill:#565759;fill-opacity:1;fill-rule:nonzero;stroke:none;stroke-width:0.07160959"
       d="m 151.27519,4.728719 v 0 c -1.39637,1.5560841 -2.28438,3.492405 -2.54218,5.563347 -0.76618,6.141944 -3.43725,20.804727 -12.4672,37.016428 -1.13858,2.039439 -0.75189,4.590163 0.97387,6.164861 l 7.17527,6.553705 c 9.61006,-5.77888 15.77565,-17.159797 12.9327,-29.962866 L 152.11302,6.4638181 C 151.96261,5.7885386 151.66188,5.2120735 151.27519,4.728719"
       inkscape:connector-curvature="0" />
    <path
       id="path86"
       style="fill:#6d6e70;fill-opacity:1;fill-rule:nonzero;stroke:none;stroke-width:0.07160959"
       d="m 57.83898,4.728719 v 0 c 1.389243,1.5560841 2.277184,3.492405 2.534979,5.563347 0.76624,6.141944 3.437259,20.804727 12.474406,37.016428 1.13145,2.039439 0.744758,4.590163 -0.981069,6.164861 L 64.699213,60.02706 C 55.082029,54.24818 48.923586,42.867263 51.766523,30.064194 L 57.001148,6.4638181 C 57.151522,5.7885386 57.445145,5.2120735 57.83898,4.728719"
       inkscape:connector-curvature="0" />
    <path
       id="path88"
       style="fill:#121112;fill-opacity:1;fill-rule:nonzero;stroke:none;stroke-width:0.07160959"
       d="m 104.6645,144.24853 h 0.52337 v -10.69139 h -0.52337 z"
       inkscape:connector-curvature="0" />
    <path
       id="path90"
       style="fill:#565759;fill-opacity:1;fill-rule:nonzero;stroke:none;stroke-width:0.07160959"
       d="m 104.74328,181.4268 c -0.0215,0 -0.0499,-0.002 -0.0717,-0.002 v 1.88476 c 0.0215,0 0.0499,0.002 0.0717,0.002 12.38128,0 22.27775,-5.26833 27.15437,-14.45369 l -1.66139,-0.88366 c -4.61162,8.67478 -13.66311,13.45259 -25.49298,13.45259"
       inkscape:connector-curvature="0" />
  </g>
</svg>
