<?xml version="1.0" encoding="UTF-8" standalone="no"?>
<!-- Created with Inkscape (http://www.inkscape.org/) -->

<svg
   xmlns:dc="http://purl.org/dc/elements/1.1/"
   xmlns:cc="http://creativecommons.org/ns#"
   xmlns:rdf="http://www.w3.org/1999/02/22-rdf-syntax-ns#"
   xmlns:svg="http://www.w3.org/2000/svg"
   xmlns="http://www.w3.org/2000/svg"
   xmlns:sodipodi="http://sodipodi.sourceforge.net/DTD/sodipodi-0.dtd"
   xmlns:inkscape="http://www.inkscape.org/namespaces/inkscape"
   width="210mm"
   height="297mm"
   viewBox="0 0 210 297"
   version="1.1"
   id="svg79827"
   inkscape:version="0.92.1 r15371"
   sodipodi:docname="lama.svg">
  <defs
     id="defs79821" />
  <sodipodi:namedview
     id="base"
     pagecolor="#ffffff"
     bordercolor="#666666"
     borderopacity="1.0"
     inkscape:pageopacity="0.0"
     inkscape:pageshadow="2"
     inkscape:zoom="0.35"
     inkscape:cx="-70"
     inkscape:cy="560"
     inkscape:document-units="mm"
     inkscape:current-layer="layer1"
     showgrid="false"
     inkscape:window-width="1920"
     inkscape:window-height="1001"
     inkscape:window-x="-9"
     inkscape:window-y="-9"
     inkscape:window-maximized="1" />
  <metadata
     id="metadata79824">
    <rdf:RDF>
      <cc:Work
         rdf:about="">
        <dc:format>image/svg+xml</dc:format>
        <dc:type
           rdf:resource="http://purl.org/dc/dcmitype/StillImage" />
        <dc:title></dc:title>
      </cc:Work>
    </rdf:RDF>
  </metadata>
  <g
     inkscape:label="Layer 1"
     inkscape:groupmode="layer"
     id="layer1">
    <path
       id="path24"
       style="fill:#f5e7d9;fill-opacity:1;fill-rule:nonzero;stroke:none;stroke-width:0.07146631"
       d="m 161.5273,128.79694 v -25.0961 c 0,-0.10656 0.008,-0.21085 0.008,-0.31662 0,-15.412414 -5.70019,-29.40481 -14.97577,-39.775998 9.68225,-5.738025 15.90839,-17.154777 13.05829,-29.999406 l -5.2269,-23.552428 c -0.71823,-3.2395761 -4.72964,-4.4073344 -7.07586,-2.061809 -3.32748,13.852305 -8.73531,27.076451 -15.99348,39.243566 -1.13486,1.901735 -3.47538,2.652118 -5.53791,1.845275 -5.8881,-2.303353 -12.25145,-3.569043 -18.89637,-3.569043 -6.64567,0 -13.008332,1.26569 -18.897118,3.569043 -2.062524,0.806843 -4.40376,0.05652 -5.537934,-1.845275 C 75.194112,35.07103 69.786276,21.846884 66.458791,7.994579 64.112571,5.6490536 60.10186,6.8168119 59.382938,10.056388 L 54.156584,33.608816 C 51.305776,46.453445 57.53122,57.870197 67.214178,63.608222 57.93918,73.97941 52.239061,87.971806 52.239061,103.38422 v 25.41272 h 0.01235 c 0,0.173 -0.01235,0.34446 -0.01235,0.51812 0,9.0991 1.988174,17.70507 5.522171,25.36626 V 293.74974 H 155.70294 V 155.32308 c 3.72272,-7.82127 5.8324,-16.65164 5.8324,-26.00802 0,-0.17361 -0.0101,-0.34518 -0.0121,-0.51812"
       inkscape:connector-curvature="0" />
    <path
       id="path26"
       style="fill:#ebd0b3;fill-opacity:1;fill-rule:nonzero;stroke:none;stroke-width:0.07146631"
       d="m 161.5273,103.70084 c 0,-0.10575 0.008,-0.21085 0.008,-0.31662 0,-15.412414 -5.70019,-29.405519 -14.97577,-39.775998 9.68225,-5.738025 15.90839,-17.154777 13.05829,-29.999406 l -5.2269,-23.552428 c -0.71823,-3.2388595 -4.72964,-4.4073344 -7.07586,-2.061809 -3.32748,13.852305 -8.73531,27.076451 -15.99348,39.242857 -1.13486,1.901715 -3.47538,2.652827 -5.53791,1.845984 -5.84162,-2.284776 -12.15138,-3.546171 -18.73917,-3.565457 V 293.74974 h 48.65844 V 155.32308 c 3.72272,-7.82127 5.8324,-16.65093 5.8324,-26.00802 0,-0.17301 -0.0101,-0.34448 -0.0121,-0.51812 h 0.006"
       inkscape:connector-curvature="0" />
    <path
       id="path28"
       style="fill:#e0b88e;fill-opacity:1;fill-rule:nonzero;stroke:none;stroke-width:0.07146631"
       d="m 107.12214,186.5503 c -12.352237,0 -22.229592,-5.25779 -27.098581,-14.42477 l 1.660845,-0.88191 c 4.598847,8.65673 13.632227,13.42566 25.437736,13.42566 11.80548,0 20.83886,-4.76893 25.43773,-13.42566 l 1.66159,0.88191 c -4.86976,9.16698 -14.74711,14.42477 -27.09932,14.42477"
       inkscape:connector-curvature="0" />
    <path
       id="path30"
       style="fill:#29282a;fill-opacity:1;fill-rule:nonzero;stroke:none;stroke-width:0.07146631"
       d="m 106.49823,147.56469 h 1.06919 v -10.66912 h -1.06919 z"
       inkscape:connector-curvature="0" />
    <path
       id="path32"
       style="fill:#ffffff;fill-opacity:1;fill-rule:nonzero;stroke:none;stroke-width:0.07146631"
       d="m 114.49102,163.68107 h -7.04301 v -13.7151 l 2.41842,2.82435 c 0.72467,0.84614 1.64084,1.50936 2.67286,1.93315 l 1.95173,0.80258"
       inkscape:connector-curvature="0" />
    <path
       id="path34"
       style="fill:#ffffff;fill-opacity:1;fill-rule:nonzero;stroke:none;stroke-width:0.07146631"
       d="m 99.573844,163.68107 h 7.043746 v -13.7151 l -2.44842,3.24456 c -0.69466,0.92191 -1.68378,1.57798 -2.8022,1.86098 l -1.793126,0.45454"
       inkscape:connector-curvature="0" />
    <path
       id="path36"
       style="fill:#29282a;fill-opacity:1;fill-rule:nonzero;stroke:none;stroke-width:0.07146631"
       d="m 106.4882,147.97633 c 0,3.41324 -2.76712,6.17972 -6.18036,6.17972 -3.41399,0 -6.181134,-2.76648 -6.181134,-6.17972 h -1.079172 c 0,4.00857 3.2503,7.26029 7.260306,7.26029 4.00925,0 7.2588,-3.25172 7.2588,-7.26029"
       inkscape:connector-curvature="0" />
    <path
       id="path38"
       style="fill:#121112;fill-opacity:1;fill-rule:nonzero;stroke:none;stroke-width:0.07146631"
       d="m 119.9382,147.56469 c 0,3.41323 -2.76719,6.18042 -6.18042,6.18042 -3.41393,0 -6.18114,-2.76719 -6.18114,-6.18042 h -1.0791 c 0,4.00927 3.25027,7.26029 7.26024,7.26029 4.00925,0 7.25955,-3.25102 7.25955,-7.26029"
       inkscape:connector-curvature="0" />
    <path
       id="path40"
       style="fill:#29282a;fill-opacity:1;fill-rule:nonzero;stroke:none;stroke-width:0.07146631"
       d="m 101.38482,134.3763 c -1.455081,-1.45505 -2.524935,-3.02659 -3.238124,-4.25152 -0.513869,-0.88405 0.193668,-1.59084 1.076985,-1.07701 1.224909,0.71323 2.796459,1.78308 4.251519,3.23815 1.45577,1.45577 2.52492,3.02732 3.23813,4.25081 0.51456,0.88475 -0.19286,1.59227 -1.07698,1.07772 -1.22491,-0.71323 -2.79576,-1.78238 -4.25153,-3.23815"
       inkscape:connector-curvature="0" />
    <path
       id="path42"
       style="fill:#121112;fill-opacity:1;fill-rule:nonzero;stroke:none;stroke-width:0.07146631"
       d="m 112.57283,134.4835 c 1.42865,-1.42718 2.46705,-2.97728 3.15597,-4.18864 0.49814,-0.87403 -0.22298,-1.59654 -1.09698,-1.09772 -1.21065,0.68822 -2.7622,1.72806 -4.1901,3.15595 -1.42715,1.4279 -2.46773,2.97873 -3.15596,4.19008 -0.49809,0.87402 0.22374,1.59513 1.09704,1.09701 1.21135,-0.68894 2.76214,-1.72734 4.19003,-3.15668"
       inkscape:connector-curvature="0" />
    <path
       id="path44"
       style="fill:#29282a;fill-opacity:1;fill-rule:nonzero;stroke:none;stroke-width:0.07146631"
       d="m 70.399876,94.391619 v 0 c -4.360873,0 -7.907714,-3.54759 -7.907714,-7.907755 v -1.425749 h -2.07399 v 1.425749 c 0,4.282273 2.715728,7.932773 6.512736,9.347097 -1.577969,1.392871 -2.815054,3.698367 -3.447534,6.495559 l 3.446096,1.98891 3.91637,2.26119 -3.91637,2.26049 -3.446096,1.98962 c 1.046962,4.6303 3.745553,7.9349 6.917961,7.9349 4.080703,0 7.388173,-5.45573 7.388173,-12.18501 0,-6.729982 -3.30747,-12.185001 -7.388173,-12.185001"
       inkscape:connector-curvature="0" />
    <path
       id="path46"
       style="fill:#121112;fill-opacity:1;fill-rule:nonzero;stroke:none;stroke-width:0.07146631"
       d="m 151.28256,85.058115 v 1.425749 c 0,4.360165 -3.54683,7.907046 -7.90771,7.907046 v 0.0393 c -0.1572,-0.01621 -0.31234,-0.0393 -0.47313,-0.0393 -3.17312,0 -5.87024,3.304593 -6.91721,7.9349 l 3.44539,1.98891 3.91637,2.2612 -3.91637,2.26119 -3.44539,1.98891 c 1.04697,4.63029 3.74409,7.9349 6.91721,7.9349 4.08146,0 7.38892,-5.45575 7.38892,-12.185 0,-4.56455 -1.52436,-8.536657 -3.7763,-10.6242 3.96851,-1.319961 6.84222,-5.061948 6.84222,-9.467856 v -1.425749"
       inkscape:connector-curvature="0" />
    <path
       id="path48"
       style="fill:#cd9358;fill-opacity:1;fill-rule:nonzero;stroke:none;stroke-width:0.07146631"
       d="m 153.55596,8.3254657 v 0 c -1.38862,1.5529539 -2.27837,3.4839833 -2.53565,5.5515113 -0.76256,6.128947 -3.42894,20.762392 -12.44371,36.942366 -1.13488,2.036067 -0.74542,4.580979 0.97406,6.152527 l 7.15879,6.539882 C 156.3038,57.745123 162.45351,46.386269 159.617,33.608816 L 154.39065,10.056388 C 154.24135,9.3831686 153.944,8.8064385 153.55596,8.3254657"
       inkscape:connector-curvature="0" />
    <path
       id="path50"
       style="fill:#d6a068;fill-opacity:1;fill-rule:nonzero;stroke:none;stroke-width:0.07146631"
       d="m 60.305982,8.3254657 v 0 c 1.388616,1.5529539 2.279063,3.4839833 2.535633,5.5515113 0.762518,6.128947 3.428938,20.762392 12.443721,36.942366 1.134862,2.036067 0.745359,4.580979 -0.974114,6.152527 l -7.15879,6.539882 C 57.558083,57.745123 51.408426,46.386269 54.244923,33.608816 l 5.226341,-23.552428 c 0.149303,-0.6732194 0.445964,-1.2499495 0.834718,-1.7309223"
       inkscape:connector-curvature="0" />
    <path
       id="path52"
       style="fill:#121112;fill-opacity:1;fill-rule:nonzero;stroke:none;stroke-width:0.07146631"
       d="m 107.04495,147.56469 h 0.52232 v -10.66912 h -0.52232 z"
       inkscape:connector-curvature="0" />
    <path
       id="path54"
       style="fill:#d6a068;fill-opacity:1;fill-rule:nonzero;stroke:none;stroke-width:0.07146631"
       d="m 107.12214,184.66858 c -0.0264,0 -0.0514,-0.002 -0.0772,-0.002 v 1.88172 c 0.0257,0 0.0509,0.002 0.0772,0.002 12.35221,0 22.22956,-5.2585 27.09932,-14.42477 l -1.66159,-0.88119 c -4.59887,8.65671 -13.63225,13.42424 -25.43773,13.42424"
       inkscape:connector-curvature="0" />
  </g>
</svg>
