<?xml version="1.0" encoding="UTF-8" standalone="no"?>
<!-- Created with Inkscape (http://www.inkscape.org/) -->

<svg
   xmlns:dc="http://purl.org/dc/elements/1.1/"
   xmlns:cc="http://creativecommons.org/ns#"
   xmlns:rdf="http://www.w3.org/1999/02/22-rdf-syntax-ns#"
   xmlns:svg="http://www.w3.org/2000/svg"
   xmlns="http://www.w3.org/2000/svg"
   xmlns:sodipodi="http://sodipodi.sourceforge.net/DTD/sodipodi-0.dtd"
   xmlns:inkscape="http://www.inkscape.org/namespaces/inkscape"
   width="210mm"
   height="297mm"
   viewBox="0 0 210 297"
   version="1.1"
   id="svg79212"
   inkscape:version="0.92.1 r15371"
   sodipodi:docname="lama cheeks.svg">
  <defs
     id="defs79206" />
  <sodipodi:namedview
     id="base"
     pagecolor="#ffffff"
     bordercolor="#666666"
     borderopacity="1.0"
     inkscape:pageopacity="0.0"
     inkscape:pageshadow="2"
     inkscape:zoom="0.35"
     inkscape:cx="-70"
     inkscape:cy="560"
     inkscape:document-units="mm"
     inkscape:current-layer="layer1"
     showgrid="false"
     inkscape:window-width="1920"
     inkscape:window-height="1001"
     inkscape:window-x="-9"
     inkscape:window-y="-9"
     inkscape:window-maximized="1" />
  <metadata
     id="metadata79209">
    <rdf:RDF>
      <cc:Work
         rdf:about="">
        <dc:format>image/svg+xml</dc:format>
        <dc:type
           rdf:resource="http://purl.org/dc/dcmitype/StillImage" />
        <dc:title></dc:title>
      </cc:Work>
    </rdf:RDF>
  </metadata>
  <g
     inkscape:label="Layer 1"
     inkscape:groupmode="layer"
     id="layer1">
    <path
       id="path128"
       style="fill:#ffffff;fill-opacity:1;fill-rule:nonzero;stroke:none;stroke-width:0.07255091"
       d="m 161.83735,127.80673 v -25.47698 c 0,-0.10879 0.007,-0.21403 0.007,-0.32286 0,-15.644883 -5.78957,-29.850333 -15.20664,-40.378939 9.83062,-5.824387 16.14984,-17.415103 13.25506,-30.454689 L 154.5897,7.2633924 c -0.73278,-3.2887332 -4.80288,-4.4742179 -7.18254,-2.0930964 -3.38086,14.063272 -8.86571,27.488091 -16.23689,39.83916 -1.15356,1.929856 -3.52597,2.692368 -5.62268,1.87326 -5.97821,-2.33831 -12.43526,-3.623907 -19.1825,-3.623907 -6.747232,0 -13.204227,1.285597 -19.182439,3.623907 -2.096703,0.819108 -4.46912,0.05655 -5.62344,-1.87326 C 74.19132,32.658387 68.700703,19.233568 65.322734,5.170296 62.940144,2.7891745 58.868568,3.9746592 58.140194,7.2633924 L 52.833819,31.173262 C 49.939747,44.212848 56.260382,55.803564 66.090285,61.627951 56.673921,72.156557 50.886536,86.362007 50.886536,102.00689 v 25.79984 h 0.01295 c 0,0.17563 -0.01295,0.34896 -0.01295,0.52599 0,9.23717 2.019817,17.97302 5.607441,25.74977 V 295.26146 H 155.92427 V 154.73472 c 3.77269,-7.93925 5.92015,-16.90437 5.92015,-26.402 0,-0.17707 -0.0146,-0.35042 -0.0146,-0.52599"
       inkscape:connector-curvature="0" />
    <path
       id="path130"
       style="fill:#fdf8e2;fill-opacity:1;fill-rule:nonzero;stroke:none;stroke-width:0.07255091"
       d="m 161.83735,102.32902 c 0,-0.10735 0.007,-0.21402 0.007,-0.3214 0,-15.645613 -5.78957,-29.851803 -15.20664,-40.380388 9.83062,-5.823668 16.14984,-17.414384 13.25506,-30.45397 L 154.5897,7.2633924 c -0.73278,-3.2880094 -4.80288,-4.4742179 -7.18254,-2.0930964 -3.38086,14.062544 -8.86571,27.487372 -16.23689,39.83916 -1.15356,1.929856 -3.52597,2.692368 -5.62268,1.87326 -5.92745,-2.319451 -12.33367,-3.599969 -19.02285,-3.619568 V 295.26146 h 49.39953 V 154.73472 c 3.77269,-7.93925 5.92015,-16.90366 5.92015,-26.40273 0,-0.17562 -0.0146,-0.34969 -0.0146,-0.526 h 0.007"
       inkscape:connector-curvature="0" />
    <path
       id="path132"
       style="fill:#e0b88e;fill-opacity:1;fill-rule:nonzero;stroke:none;stroke-width:0.07255091"
       d="m 106.60433,186.43511 c -12.5368,0 -22.57059,-5.33614 -27.510546,-14.64222 l 1.68534,-0.89674 c 4.669358,8.78882 13.839829,13.63014 25.825206,13.63014 11.98543,0 21.15584,-4.84132 25.8209,-13.63014 l 1.69041,0.89674 c -4.94796,9.30608 -14.97451,14.64222 -27.51131,14.64222"
       inkscape:connector-curvature="0" />
    <path
       id="path134"
       style="fill:#29282a;fill-opacity:1;fill-rule:nonzero;stroke:none;stroke-width:0.07255091"
       d="m 106.08196,144.52318 h 0.85249 v -8.49558 h -0.85249 z"
       inkscape:connector-curvature="0" />
    <path
       id="path136"
       style="fill:#29282a;fill-opacity:1;fill-rule:nonzero;stroke:none;stroke-width:0.07255091"
       d="m 106.08196,144.8511 c 0,2.71849 -2.20552,4.92187 -4.92619,4.92187 -2.71342,0 -4.918949,-2.20338 -4.918949,-4.92187 h -0.863374 c 0,3.19298 2.590067,5.78159 5.782323,5.78159 3.19226,0 5.78233,-2.58861 5.78233,-5.78159"
       inkscape:connector-curvature="0" />
    <path
       id="path138"
       style="fill:#121112;fill-opacity:1;fill-rule:nonzero;stroke:none;stroke-width:0.07255091"
       d="m 116.79047,144.5239 c 0,2.71776 -2.20553,4.92112 -4.91895,4.92112 -2.72065,0 -4.92618,-2.20336 -4.92618,-4.92112 h -0.85609 c 0,3.19223 2.58278,5.78085 5.78227,5.78085 3.19227,0 5.7751,-2.58862 5.7751,-5.78085"
       inkscape:connector-curvature="0" />
    <path
       id="path140"
       style="fill:#29282a;fill-opacity:1;fill-rule:nonzero;stroke:none;stroke-width:0.07255091"
       d="m 100.77853,133.47004 c -1.472806,-1.47786 -2.56107,-3.07179 -3.28656,-4.31531 -0.522367,-0.89819 0.195887,-1.61572 1.095501,-1.09481 1.24062,0.72479 2.836719,1.81016 4.316759,3.288 1.47281,1.47715 2.56106,3.07327 3.28656,4.31607 0.52236,0.89744 -0.19589,1.61498 -1.09551,1.09333 -1.24061,-0.72405 -2.83672,-1.8094 -4.31675,-3.28728"
       inkscape:connector-curvature="0" />
    <path
       id="path142"
       style="fill:#121112;fill-opacity:1;fill-rule:nonzero;stroke:none;stroke-width:0.07255091"
       d="m 112.14,133.57888 c 1.44374,-1.44956 2.50301,-3.0232 3.19949,-4.25294 0.50784,-0.88731 -0.22494,-1.62006 -1.11003,-1.11437 -1.23338,0.69865 -2.80771,1.75499 -4.25875,3.20455 -1.44374,1.44957 -2.503,3.02393 -3.19949,4.25295 -0.50784,0.8873 0.22488,1.61933 1.11002,1.11437 1.23338,-0.69938 2.80772,-1.75427 4.25876,-3.20456"
       inkscape:connector-curvature="0" />
    <path
       id="path144"
       style="fill:#29282a;fill-opacity:1;fill-rule:nonzero;stroke:none;stroke-width:0.07255091"
       d="m 69.324769,92.877808 v 0 c -4.426296,0 -8.027741,-3.601428 -8.027741,-8.027024 v -1.448127 h -2.104702 v 1.448127 c 0,4.346522 2.756191,8.053144 6.610113,9.488932 -1.600455,1.413287 -2.857071,3.754502 -3.498386,6.594154 l 3.497678,2.01835 3.975755,2.29552 -3.975755,2.29623 -3.497678,2.01837 c 1.062145,4.70058 3.802393,8.05532 7.022891,8.05532 4.142694,0 7.500314,-5.5378 7.500314,-12.36992 0,-6.832121 -3.35762,-12.369932 -7.500314,-12.369932"
       inkscape:connector-curvature="0" />
    <path
       id="path146"
       style="fill:#121112;fill-opacity:1;fill-rule:nonzero;stroke:none;stroke-width:0.07255091"
       d="m 151.43356,83.402657 v 1.448127 c 0,4.426337 -3.59851,8.027024 -8.02416,8.027024 v 0.03986 c -0.15958,-0.01647 -0.31919,-0.03986 -0.48607,-0.03986 -3.21402,0 -5.95645,3.354763 -7.01566,8.055322 l 3.49693,2.01909 3.97581,2.29552 -3.97581,2.29551 -3.49693,2.01909 c 1.05921,4.70058 3.7944,8.05532 7.01566,8.05532 4.14264,0 7.50179,-5.53852 7.50179,-12.36992 0,-4.63383 -1.54534,-8.666925 -3.83069,-10.785408 4.02658,-1.339301 6.94311,-5.138794 6.94311,-9.611548 v -1.448127"
       inkscape:connector-curvature="0" />
    <path
       id="path148"
       style="fill:#6d4a2a;fill-opacity:1;fill-rule:nonzero;stroke:none;stroke-width:0.07255091"
       d="m 153.74067,5.5062108 v 0 c -1.40751,1.5765293 -2.31435,3.5368578 -2.57554,5.6357532 -0.76907,6.221968 -3.4752,21.078212 -12.63114,37.503019 -1.15356,2.066968 -0.7545,4.649783 0.98672,6.2459 l 7.2696,6.639134 c 9.74355,-5.854124 15.98295,-17.385365 13.1027,-30.356014 L 154.58951,7.2633924 C 154.43717,6.579962 154.13968,5.9944761 153.74067,5.5062108"
       inkscape:connector-curvature="0" />
    <path
       id="path150"
       style="fill:#b16d29;fill-opacity:1;fill-rule:nonzero;stroke:none;stroke-width:0.07255091"
       d="m 59.077678,5.5062108 v 0 c 1.408974,1.5765293 2.312942,3.5368578 2.574125,5.6357532 0.773373,6.221968 3.480974,21.078212 12.632565,37.503019 1.151382,2.066968 0.756724,4.649783 -0.989613,6.2459 l -7.266664,6.639134 C 56.28737,55.675893 50.04509,44.144652 52.923928,31.174003 L 58.229594,7.2633924 c 0.15159,-0.6834304 0.453425,-1.2689163 0.848084,-1.7571816"
       inkscape:connector-curvature="0" />
    <path
       id="path152"
       style="fill:#121112;fill-opacity:1;fill-rule:nonzero;stroke:none;stroke-width:0.07255091"
       d="m 106.52456,144.52318 h 0.4155 v -8.49558 h -0.4155 z"
       inkscape:connector-curvature="0" />
    <path
       id="path154"
       style="fill:#d6a068;fill-opacity:1;fill-rule:nonzero;stroke:none;stroke-width:0.07255091"
       d="m 106.60433,184.52629 c -0.0289,0 -0.0506,-0.002 -0.0797,-0.002 v 1.90882 c 0.0289,0 0.0506,0.002 0.0797,0.002 12.5368,0 22.56335,-5.33686 27.51131,-14.64222 l -1.69041,-0.89603 c -4.66506,8.78882 -13.83547,13.62943 -25.8209,13.62943"
       inkscape:connector-curvature="0" />
    <path
       id="path156"
       style="fill:#b16d29;fill-opacity:1;fill-rule:nonzero;stroke:none;stroke-width:0.07255091"
       d="m 155.90267,232.5724 -49.71188,49.71333 -49.698064,-49.69374 v 62.66875 H 155.9172"
       inkscape:connector-curvature="0" />
    <path
       id="path158"
       style="fill:#6d4a2a;fill-opacity:1;fill-rule:nonzero;stroke:none;stroke-width:0.07255091"
       d="m 155.90267,232.5724 -49.37811,49.37669 v 13.31165 h 49.39264"
       inkscape:connector-curvature="0" />
    <path
       id="path160"
       style="fill:#6d4a2a;fill-opacity:1;fill-rule:nonzero;stroke:none;stroke-width:0.07255091"
       d="m 149.37309,140.99721 c 0,7.24129 -5.86933,13.11212 -13.10993,13.11212 -7.2406,0 -13.10994,-5.87083 -13.10994,-13.11212 0,-7.24204 5.86934,-13.11212 13.10994,-13.11212 7.2406,0 13.10993,5.87008 13.10993,13.11212"
       inkscape:connector-curvature="0" />
    <path
       id="path162"
       style="fill:#b16d29;fill-opacity:1;fill-rule:nonzero;stroke:none;stroke-width:0.07255091"
       d="m 89.576648,140.99721 c 0,7.24129 -5.869387,13.11212 -13.108517,13.11212 -7.242721,0 -13.113577,-5.87083 -13.113577,-13.11212 0,-7.24204 5.870856,-13.11212 13.113577,-13.11212 7.23913,0 13.108517,5.87008 13.108517,13.11212"
       inkscape:connector-curvature="0" />
  </g>
</svg>
