<?xml version="1.0" encoding="UTF-8" standalone="no"?>
<!-- Created with Inkscape (http://www.inkscape.org/) -->

<svg
   xmlns:dc="http://purl.org/dc/elements/1.1/"
   xmlns:cc="http://creativecommons.org/ns#"
   xmlns:rdf="http://www.w3.org/1999/02/22-rdf-syntax-ns#"
   xmlns:svg="http://www.w3.org/2000/svg"
   xmlns="http://www.w3.org/2000/svg"
   xmlns:sodipodi="http://sodipodi.sourceforge.net/DTD/sodipodi-0.dtd"
   xmlns:inkscape="http://www.inkscape.org/namespaces/inkscape"
   width="210mm"
   height="297mm"
   viewBox="0 0 210 297"
   version="1.1"
   id="svg77978"
   inkscape:version="0.92.1 r15371"
   sodipodi:docname="lama brown.svg">
  <defs
     id="defs77972" />
  <sodipodi:namedview
     id="base"
     pagecolor="#ffffff"
     bordercolor="#666666"
     borderopacity="1.0"
     inkscape:pageopacity="0.0"
     inkscape:pageshadow="2"
     inkscape:zoom="0.35"
     inkscape:cx="-70"
     inkscape:cy="560"
     inkscape:document-units="mm"
     inkscape:current-layer="layer1"
     showgrid="false"
     inkscape:window-width="1920"
     inkscape:window-height="1001"
     inkscape:window-x="-9"
     inkscape:window-y="-9"
     inkscape:window-maximized="1" />
  <metadata
     id="metadata77975">
    <rdf:RDF>
      <cc:Work
         rdf:about="">
        <dc:format>image/svg+xml</dc:format>
        <dc:type
           rdf:resource="http://purl.org/dc/dcmitype/StillImage" />
        <dc:title></dc:title>
      </cc:Work>
    </rdf:RDF>
  </metadata>
  <g
     inkscape:label="Layer 1"
     inkscape:groupmode="layer"
     id="layer1">
    <path
       id="path92"
       style="fill:#8f5c29;fill-opacity:1;fill-rule:nonzero;stroke:none;stroke-width:0.07255091"
       d="m 160.77121,127.05075 v -25.47694 c 0,-0.10879 0.008,-0.21401 0.008,-0.32284 0,-15.644879 -5.78667,-29.850369 -15.20305,-40.378934 9.82921,-5.824386 16.14985,-17.415165 13.25723,-30.454728 L 153.52648,6.5074403 c -0.72913,-3.288729 -4.80141,-4.4742337 -7.1833,-2.0931061 -3.36996,14.0306618 -8.84247,27.4257228 -16.18466,39.7542718 -1.16078,1.947276 -3.56079,2.785242 -5.67274,1.958875 -5.97891,-2.33901 -12.43814,-3.624628 -19.18391,-3.624628 -6.746519,0 -13.205689,1.285618 -19.183909,3.624628 -2.11268,0.826367 -4.51193,-0.01234 -5.67273,-1.958875 C 73.103039,31.840057 67.630551,18.444996 64.259827,4.4143342 61.877979,2.0332066 57.80642,3.2187113 57.076567,6.5074403 L 51.770907,30.417308 C 48.876894,43.456871 55.197529,55.04765 65.026718,60.872036 55.610301,71.400601 49.824393,85.606091 49.824393,101.25097 v 25.79978 h 0.01234 c 0,0.17563 -0.01234,0.34902 -0.01234,0.52603 0,9.23717 2.01835,17.97305 5.606021,25.74977 V 294.50552 H 154.85835 V 153.97875 c 3.77916,-7.93921 5.92086,-16.90432 5.92086,-26.40197 0,-0.17707 -0.0103,-0.35044 -0.0123,-0.52603"
       inkscape:connector-curvature="0" />
    <path
       id="path94"
       style="fill:#4b392a;fill-opacity:1;fill-rule:nonzero;stroke:none;stroke-width:0.07255091"
       d="m 160.77121,101.57309 c 0,-0.10735 0.008,-0.21405 0.008,-0.32142 0,-15.645579 -5.78667,-29.851769 -15.20305,-40.380395 9.82921,-5.823625 16.14985,-17.414404 13.25723,-30.453967 L 153.52648,6.5074403 c -0.72913,-3.2880092 -4.80141,-4.4742337 -7.1833,-2.0931061 -3.3772,14.0625388 -8.86717,27.4873578 -16.23614,39.8391458 -1.15136,1.929877 -3.52813,2.692368 -5.62126,1.873301 -5.93103,-2.319472 -12.33584,-3.599989 -19.0243,-3.619568 V 294.50552 h 49.39687 V 153.97875 c 3.77916,-7.93921 5.92086,-16.90362 5.92086,-26.40269 0,-0.17563 -0.0103,-0.34972 -0.0123,-0.526 h 0.006"
       inkscape:connector-curvature="0" />
    <path
       id="path96"
       style="fill:#e0b88e;fill-opacity:1;fill-rule:nonzero;stroke:none;stroke-width:0.07255091"
       d="m 105.54114,185.67916 c -12.540439,0 -22.566939,-5.33614 -27.511299,-14.6422 l 1.68681,-0.89673 c 4.66864,8.78882 13.83905,13.63013 25.824489,13.63013 11.98395,0 21.15514,-4.84131 25.82302,-13.63013 l 1.68681,0.89673 c -4.9436,9.30606 -14.97016,14.6422 -27.50983,14.6422"
       inkscape:connector-curvature="0" />
    <path
       id="path98"
       style="fill:#29282a;fill-opacity:1;fill-rule:nonzero;stroke:none;stroke-width:0.07255091"
       d="m 104.9063,146.10265 h 1.08631 v -10.83104 h -1.08631 z"
       inkscape:connector-curvature="0" />
    <path
       id="path100"
       style="fill:#ffffff;fill-opacity:1;fill-rule:nonzero;stroke:none;stroke-width:0.07255091"
       d="m 113.02186,162.46286 h -7.14989 v -13.92324 l 2.45441,2.86723 c 0.73637,0.85973 1.66575,1.53229 2.71266,1.96248 l 1.98282,0.81479"
       inkscape:connector-curvature="0" />
    <path
       id="path102"
       style="fill:#ffffff;fill-opacity:1;fill-rule:nonzero;stroke:none;stroke-width:0.07255091"
       d="m 97.878291,162.46286 h 7.149899 v -13.92324 l -2.48484,3.29455 c -0.70596,0.9352 -1.70933,1.60121 -2.844719,1.88922 l -1.82034,0.46073"
       inkscape:connector-curvature="0" />
    <path
       id="path104"
       style="fill:#29282a;fill-opacity:1;fill-rule:nonzero;stroke:none;stroke-width:0.07255091"
       d="m 104.8976,146.52055 c 0,3.46504 -2.80914,6.27417 -6.274179,6.27417 -3.46578,0 -6.27568,-2.80913 -6.27568,-6.27417 h -1.09479 c 0,4.07012 3.29891,7.37044 7.37047,7.37044 4.070119,0 7.369729,-3.30032 7.369729,-7.37044"
       inkscape:connector-curvature="0" />
    <path
       id="path106"
       style="fill:#121112;fill-opacity:1;fill-rule:nonzero;stroke:none;stroke-width:0.07255091"
       d="m 118.5517,146.10265 c 0,3.46576 -2.8099,6.27418 -6.27422,6.27418 -3.4665,0 -6.27563,-2.80842 -6.27563,-6.27418 h -1.09555 c 0,4.07012 3.2996,7.37045 7.37118,7.37045 4.07012,0 7.36901,-3.30033 7.36901,-7.37045"
       inkscape:connector-curvature="0" />
    <path
       id="path108"
       style="fill:#29282a;fill-opacity:1;fill-rule:nonzero;stroke:none;stroke-width:0.07255091"
       d="m 99.716051,132.71409 c -1.47717,-1.47786 -2.56254,-3.0718 -3.28657,-4.3153 -0.52313,-0.8982 0.19578,-1.61646 1.09333,-1.09479 1.2428,0.72477 2.838199,1.8101 4.315339,3.28797 1.47787,1.47716 2.56396,3.07326 3.28727,4.31606 0.52237,0.89748 -0.19578,1.61498 -1.09333,1.09337 -1.24356,-0.72407 -2.8382,-1.80946 -4.316039,-3.28731"
       inkscape:connector-curvature="0" />
    <path
       id="path110"
       style="fill:#121112;fill-opacity:1;fill-rule:nonzero;stroke:none;stroke-width:0.07255091"
       d="m 111.07386,132.8229 c 1.45029,-1.44956 2.50448,-3.02318 3.20455,-4.25292 0.50497,-0.88726 -0.22706,-1.62004 -1.11508,-1.11439 -1.22826,0.69867 -2.80336,1.75505 -4.25293,3.20461 -1.44887,1.44957 -2.50518,3.02391 -3.20386,4.25293 -0.5064,0.88726 0.22707,1.61934 1.11369,1.11439 1.23044,-0.69944 2.80336,-1.75429 4.25363,-3.20462"
       inkscape:connector-curvature="0" />
    <path
       id="path112"
       style="fill:#29282a;fill-opacity:1;fill-rule:nonzero;stroke:none;stroke-width:0.07255091"
       d="m 68.261586,92.121852 h -0.0062 c -4.425657,0 -8.027045,-3.601388 -8.027045,-8.027025 V 82.64672 h -2.105446 v 1.448107 c 0,4.346521 2.758424,8.053143 6.611577,9.488952 -1.601917,1.413269 -2.857078,3.754499 -3.499856,6.594161 l 3.498396,2.01835 3.975805,2.29553 -3.975805,2.29623 -3.498396,2.01835 c 1.065031,4.70058 3.803857,8.05533 7.02365,8.05533 4.142654,0 7.499615,-5.53779 7.499615,-12.36991 0,-6.832122 -3.356961,-12.369968 -7.499615,-12.369968"
       inkscape:connector-curvature="0" />
    <path
       id="path114"
       style="fill:#121112;fill-opacity:1;fill-rule:nonzero;stroke:none;stroke-width:0.07255091"
       d="m 150.37106,82.64672 v 1.448107 c 0,4.426336 -3.60069,8.027025 -8.02774,8.027025 v 0.03969 c -0.15898,-0.01645 -0.31776,-0.03969 -0.48029,-0.03969 -3.22056,0 -5.95864,3.354786 -7.02219,8.055328 l 3.49839,2.01911 3.97505,2.29553 -3.97505,2.29547 -3.49839,2.01911 c 1.06355,4.70058 3.80163,8.05533 7.02219,8.05533 4.14339,0 7.50102,-5.53855 7.50102,-12.36991 0,-4.633822 -1.54753,-8.666945 -3.83358,-10.785449 4.02874,-1.339274 6.94676,-5.138791 6.94676,-9.611544 V 82.64672"
       inkscape:connector-curvature="0" />
    <path
       id="path116"
       style="fill:#cd9358;fill-opacity:1;fill-rule:nonzero;stroke:none;stroke-width:0.07255091"
       d="m 152.67889,4.750294 v 0 c -1.40963,1.576498 -2.31289,3.5368532 -2.57407,5.635718 -0.77413,6.222002 -3.48102,21.078209 -12.63257,37.503036 -1.15213,2.066947 -0.75671,4.649782 0.98957,6.245879 l 7.26672,6.639155 c 9.74065,-5.854145 15.98369,-17.385386 13.10416,-30.356013 L 153.52632,6.5074403 C 153.37537,5.8240245 153.07361,5.2385422 152.67889,4.750294"
       inkscape:connector-curvature="0" />
    <path
       id="path118"
       style="fill:#d6a068;fill-opacity:1;fill-rule:nonzero;stroke:none;stroke-width:0.07255091"
       d="m 58.014483,4.750294 v 0 c 1.40969,1.576498 2.312952,3.5368532 2.573375,5.635718 0.77483,6.222002 3.481017,21.078209 12.63403,37.503036 1.152086,2.066947 0.756712,4.649782 -0.989617,6.245879 l -7.268134,6.639155 C 55.224182,54.919937 48.981902,43.388696 51.860738,30.418069 L 57.167817,6.5074403 C 57.317946,5.8240245 57.619829,5.2385422 58.014483,4.750294"
       inkscape:connector-curvature="0" />
    <path
       id="path120"
       style="fill:#121112;fill-opacity:1;fill-rule:nonzero;stroke:none;stroke-width:0.07255091"
       d="m 105.46208,146.10265 h 0.53107 v -10.83104 h -0.53107 z"
       inkscape:connector-curvature="0" />
    <path
       id="path122"
       style="fill:#d6a068;fill-opacity:1;fill-rule:nonzero;stroke:none;stroke-width:0.07255091"
       d="m 105.54114,183.77036 c -0.0267,0 -0.0522,0 -0.079,0 v 1.9088 c 0.0267,0 0.0522,0 0.079,0 12.53967,0 22.56623,-5.33684 27.50983,-14.6422 l -1.68681,-0.89603 c -4.66788,8.78882 -13.83907,13.62943 -25.82302,13.62943"
       inkscape:connector-curvature="0" />
    <path
       id="path124"
       style="fill:#fdf8e2;fill-opacity:1;fill-rule:nonzero;stroke:none;stroke-width:0.07255091"
       d="m 136.19245,79.176623 c 0,-3.778438 -2.52118,-6.938056 -5.90784,-7.776022 V 71.176415 H 81.468041 v 0.237965 c -3.34245,0.856125 -5.82439,4.001924 -5.82439,7.762243 0,3.760278 2.48194,6.906117 5.82439,7.762921 v 0.238006 c 2.34411,0 4.44371,1.448086 5.2766,3.639147 l 9.98226,26.241623 c 1.90448,5.00601 4.354539,9.78785 7.307369,14.25702 l 0.3279,0.49695 c 0.39106,0.59202 1.25662,0.60072 1.65927,0.0164 3.31555,-4.80795 6.03986,-9.99608 8.1155,-15.45405 l 9.72184,-25.557541 c 0.83291,-2.190998 2.93397,-3.639146 5.27662,-3.639146 h 1.14921 v -0.224248 c 3.38666,-0.838666 5.90784,-3.997523 5.90784,-7.776721"
       inkscape:connector-curvature="0" />
    <path
       id="path126"
       style="fill:#f9dfc6;fill-opacity:1;fill-rule:nonzero;stroke:none;stroke-width:0.07255091"
       d="m 105.46208,71.174955 v 61.047225 c 0.21619,-0.058 0.41789,-0.18632 0.55936,-0.39465 3.31555,-4.80723 6.04058,-9.99608 8.1155,-15.45405 l 9.72114,-25.556783 c 0.83361,-2.191061 2.93395,-3.638448 5.27732,-3.638448 h 1.14997 v -0.225646 c 3.3859,-0.837966 5.90632,-3.996103 5.90632,-7.776741 0,-3.779158 -2.52042,-6.937295 -5.90632,-7.774542 v -0.226365"
       inkscape:connector-curvature="0" />
  </g>
</svg>
